# xmcd
#
# Track frame offsets:
#	150
#	11592
#	23871
#	37802
#	51001
#	62506
#	75788
#	88738
#	99151
#	113096
#	124070
#	145540
#	165048
#	185740
#	198871
#	232112
#	246854
#	260237
#	272185
#	285627
#
# Disc length: 3944 seconds
# Revision: 0
# Processed by: cddbd v1.5.2PL0 Copyright (c) Steve Scherf et al.
# Submitted via: dBpowerAMP V12.0
#
DISCID=010f6614
DTITLE=Muddy Waters - The Blues
DYEAR=2012
DGENRE=Blues
TTITLE0=Crawling kingsnake
TTITLE1=Hey hey
TTITLE2=Lonesome road blues
TTITLE3=Southbound train
TTITLE4=Just a dream
TTITLE5=I feel so good
TTITLE6=Woman wanted
TTITLE7=I'm your doctor
TTITLE8=Deep down in my heart
TTITLE9=Meanest woman
TTITLE10=I got my brand on you
TTITLE11=Soon forgotten
TTITLE12=Tiger in your tank
TTITLE13=I feel so good
TTITLE14=Got my mojo working
TTITLE15=Rock me
TTITLE16=Blow wind blow
TTITLE17=Real love
TTITLE18=Lonesome room blues
TTITLE19=Messin' with the man
EXTD=
EXTT0=
EXTT1=
EXTT2=
EXTT3=
EXTT4=
EXTT5=
EXTT6=
EXTT7=
EXTT8=
EXTT9=
EXTT10=
EXTT11=
EXTT12=
EXTT13=
EXTT14=
EXTT15=
EXTT16=
EXTT17=
EXTT18=
EXTT19=
PLAYORDER=
